<svg width="24" height="24" viewBox="0 0 24 24" fill="none" xmlns="http://www.w3.org/2000/svg">
<g id="dribbble-icon">
<path id="dribbble-icon_2" d="M12 1C5.93456 1 1 5.93456 1 12C1 18.0654 5.93456 23 12 23C18.0654 23 23 18.0654 23 12C23 5.93456 18.0654 1 12 1ZM19.2729 6.07269C20.5815 7.6715 21.3739 9.70787 21.3946 11.9255C21.0848 11.86 17.9785 11.23 14.8521 11.6231C14.597 11.0003 14.3562 10.4525 14.0264 9.77734C17.5003 8.359 19.0748 6.34063 19.2729 6.07269ZM18.2283 4.98617C18.0594 5.22688 16.645 7.12789 13.304 8.38016C11.7644 5.55138 10.0579 3.22754 9.79823 2.8798C12.7778 2.16156 15.9177 2.93613 18.2283 4.98617ZM8.00545 3.51137C8.25317 3.85108 9.93213 6.17781 11.4889 8.94524C7.09396 10.1123 3.22298 10.0955 2.80276 10.09C3.41202 7.17442 5.37685 4.75122 8.00545 3.51137ZM2.60431 12.0143C2.60431 11.9183 2.60622 11.8226 2.6091 11.7272C3.02019 11.7356 7.5733 11.7943 12.2654 10.3901C12.5344 10.9165 12.7913 11.4508 13.0272 11.9846C9.62963 12.9416 6.54276 15.6894 5.01975 18.2966C3.51909 16.6309 2.60431 14.4275 2.60431 12.0143ZM6.23285 19.4266C7.21429 17.4203 9.87784 14.8305 13.6658 13.5382C14.9849 16.9661 15.5304 19.839 15.6701 20.6633C12.649 21.9502 9.01625 21.5971 6.23285 19.4266ZM17.2497 19.8031C17.1534 19.2316 16.6533 16.4811 15.4244 13.1041C18.3687 12.6328 20.9555 13.4043 21.2769 13.5057C20.8581 16.12 19.3575 18.3778 17.2497 19.8031Z" fill="#16133D"/>
</g>
</svg>
