<svg width="40" height="36" viewBox="0 0 40 36" fill="none" xmlns="http://www.w3.org/2000/svg">
<path d="M34.3723 17.0039C35.1686 18.2942 34.2137 19.9147 32.6218 19.9722C26.8092 20.1851 20.8825 21.5432 15.2947 24.2169L13.4471 25.2144C13.4471 25.2222 13.4216 25.1736 17.9196 32.4919C18.3323 33.1615 18.0874 34.0168 17.3724 34.4037L15.915 35.1906C15.2001 35.5767 14.285 35.3476 13.8723 34.6779L9.38562 27.4082L8.65736 27.8021C7.22658 28.5742 5.39721 28.1159 4.57097 26.7774L1.2062 21.3255C0.38078 19.987 0.870715 18.2756 2.30149 17.5026L8.93886 13.9175C14.0113 10.8478 18.3097 6.78337 21.5318 2.00218C22.3813 0.74136 24.3585 0.777871 25.1549 2.06821L28.0339 6.73396C29.688 5.84058 31.8039 6.37117 32.7588 7.91865C33.7138 9.46613 33.1466 11.4448 31.4925 12.3381L34.3723 17.0039Z" fill="#D1E7FF"/>
<path d="M32.7588 7.91887C33.7137 9.46636 33.1466 11.445 31.4924 12.3384L28.0338 6.73416C29.688 5.84078 31.8038 6.37137 32.7588 7.91887Z" fill="#D1E7FF"/>
<path d="M25.1549 2.06818C25.5521 2.7125 25.5267 3.5118 25.087 4.13157C21.5402 9.13111 16.7864 13.6487 10.9725 17.1677L3.19583 21.3681C2.66188 21.6571 2.23921 22.0572 1.94359 22.5194L1.2062 21.3254C0.38078 19.9869 0.870715 18.2755 2.30149 17.5026L8.93886 13.9174C14.0113 10.8478 18.3097 6.78333 21.5318 2.00215C22.3813 0.741332 24.3585 0.777921 25.1549 2.06818Z" fill="#E8F3FF"/>
<path d="M8.93886 13.9177L15.2947 24.2171C14.0211 24.9047 9.92919 27.1145 8.65735 27.8023C7.22658 28.5745 5.39721 28.1161 4.57097 26.7776L1.2062 21.3257C0.38078 19.9872 0.870715 18.2758 2.30149 17.5029L8.93886 13.9177Z" fill="#B9DCFF"/>
<path d="M10.9516 17.1794C2.50606 21.7406 3.06575 21.4233 2.7933 21.6216C2.28019 21.9951 1.53134 21.852 1.20607 21.3254C0.380658 19.9869 0.870593 18.2756 2.30137 17.5026L8.93874 13.9175L10.9516 17.1794Z" fill="#D1E7FF"/>
<path d="M14.657 27.183C12.294 28.463 14.0325 27.521 10.5997 29.3744L9.38562 27.4083L13.4471 25.2153L14.657 27.183Z" fill="#B9DCFF"/>
<path d="M32.552 11.4495C32.278 11.8014 31.9217 12.1067 31.4924 12.3382L28.0338 6.73412C28.4631 6.50185 28.924 6.36668 29.3865 6.32007C29.5606 6.60221 32.4001 11.2035 32.552 11.4495Z" fill="#B9DCFF"/>
<path d="M32.3729 12.5215C34.9655 10.5404 34.07 6.62262 30.8304 5.81066C29.9839 5.5985 29.1076 5.64263 28.3042 5.92889L25.7302 1.75793C24.6827 0.0605986 22.0848 0.0156194 20.9694 1.67053C17.8033 6.36843 13.5854 10.3641 8.57779 13.3962C8.29263 13.5685 8.18692 13.9246 8.35566 14.2144C8.38273 14.2608 12.6465 21.1688 12.6747 21.2145C12.8581 21.5116 13.2641 21.6137 13.5822 21.442C13.8999 21.2704 14.0088 20.8903 13.8253 20.593L9.82696 14.1141C14.6018 11.1279 18.8307 7.17449 22.0934 2.33342C22.6769 1.46747 24.0332 1.49435 24.5795 2.37941L33.7966 17.3144C34.3435 18.2006 33.6878 19.3118 32.5961 19.3516C26.4713 19.5748 20.4747 21.0403 14.9922 23.6636C14.9689 23.6747 8.75284 27.0326 8.32477 27.2638C7.21361 27.864 5.78782 27.5066 5.14642 26.4671L1.78157 21.0146C1.14008 19.9752 1.52215 18.6414 2.63322 18.0412L6.68299 15.8539C7.0007 15.6823 7.10957 15.3022 6.92613 15.0049C6.7427 14.7076 6.3363 14.6059 6.01867 14.7775L1.9689 16.9648C0.223407 17.9076 -0.376805 20.0031 0.630966 21.6361L3.9959 27.0885C5.00376 28.7216 7.24376 29.2829 8.98925 28.3401L9.14246 28.2574L13.2969 34.989C13.8936 35.9559 15.2131 36.2871 16.2473 35.7286L17.7044 34.9416C18.7382 34.3832 19.0918 33.1487 18.4949 32.1815L15.5506 27.4106C15.3671 27.1134 14.9608 27.0116 14.6431 27.1832C14.3254 27.3548 14.2165 27.7349 14.4 28.0321L17.3443 32.803C17.574 33.1751 17.438 33.6503 17.04 33.8651L15.5829 34.6522C15.1851 34.867 14.6772 34.7397 14.4475 34.3675L10.2931 27.6359L15.6123 24.7629C20.8173 22.275 26.6078 20.8136 32.6479 20.5935C34.7411 20.5171 35.9931 18.3873 34.9472 16.6928L32.3729 12.5215ZM32.1832 8.22914C32.839 9.29186 32.6035 10.6106 31.6956 11.4239L28.9814 7.02596C30.1713 6.69945 31.5168 7.14924 32.1832 8.22914ZM38.6807 5.46613L36.9619 6.39454C36.6439 6.56622 36.2378 6.46422 36.0544 6.16708C35.8709 5.86985 35.9799 5.48974 36.2976 5.31814L38.0164 4.38973C38.3344 4.21805 38.7405 4.32005 38.9239 4.61719C39.1073 4.91441 38.9984 5.29452 38.6807 5.46613ZM31.2887 1.92402L31.7079 0.460752C31.8029 0.129194 32.1669 -0.0674254 32.5216 0.0212904C32.876 0.110162 33.0862 0.450964 32.9912 0.782444L32.5721 2.24571C32.4773 2.57641 32.1139 2.77404 31.7584 2.68517C31.404 2.5963 31.1938 2.25558 31.2887 1.92402ZM39.9772 12.1022C39.8977 12.3798 39.6293 12.5629 39.3359 12.5629C39.2157 12.5629 39.2998 12.5757 37.5994 12.1495C37.245 12.0606 37.0346 11.7199 37.1296 11.3883C37.2246 11.0568 37.5889 10.8602 37.9432 10.9489L39.5075 11.3409C39.8618 11.4298 40.0722 11.7706 39.9772 12.1022Z" fill="#007FFC"/>
</svg>
